<svg xmlns="http://www.w3.org/2000/svg" viewBox="0 0 40 40" aria-hidden="true" role="img">
  <g fill="currentColor">
    <!-- Top-left: twin rounded bars (m) -->
    <path d="M2 3 a3 3 0 0 1 3 -3 a3 3 0 0 1 3 3 v15 h-6 z"/>
    <path d="M10 3 a3 3 0 0 1 3 -3 a3 3 0 0 1 3 3 v15 h-6 z"/>

    <!-- Top-right: e shape (C-curve plus bar) -->
    <path d="M29 0 a9 9 0 1 0 0 18 h9 v-6 h-4 a1 1 0 0 1 -1 -1 v-1 h5 v-4 h-5 v-1 a1 1 0 0 1 1 -1 h4 v-4 z"/>

    <!-- Bottom-left: filled circle with inner ring -->
    <path d="M10 22 a9 9 0 1 0 0 18 a9 9 0 1 0 0 -18 z
             M10 24.4 a6.6 6.6 0 1 1 0 13.2 a6.6 6.6 0 1 1 0 -13.2 z" fill-rule="evenodd"/>

    <!-- Bottom-right: twin rounded bars (m) -->
    <path d="M24 25 a3 3 0 0 1 3 -3 a3 3 0 0 1 3 3 v15 h-6 z"/>
    <path d="M32 25 a3 3 0 0 1 3 -3 a3 3 0 0 1 3 3 v15 h-6 z"/>
  </g>
</svg>
